# Blender 4.5.1 LTS
# www.blender.org
mtllib floor.mtl
o Plane
v -1.000000 -0.020000 0.980000
v -0.980000 -0.020000 1.000000
v -0.980000 0.000000 0.980000
v -0.998478 -0.020000 0.987654
v -0.994142 -0.020000 0.994142
v -0.998478 -0.012346 0.980000
v -0.996640 -0.012155 0.987845
v -0.993125 -0.012553 0.993125
v -0.991547 -0.008453 0.991547
v -0.980000 -0.012346 0.998478
v -0.980000 -0.005858 0.994142
v -0.987654 -0.020000 0.998478
v -0.987845 -0.012155 0.996640
v -0.987447 -0.006875 0.993125
v -0.987654 -0.001522 0.980000
v -0.994142 -0.005858 0.980000
v -0.980000 -0.001522 0.987654
v -0.987845 -0.003360 0.987845
v -0.993125 -0.006875 0.987447
v 0.980000 -0.020000 1.000000
v 1.000000 -0.020000 0.980000
v 0.980000 0.000000 0.980000
v 0.987654 -0.020000 0.998478
v 0.994142 -0.020000 0.994142
v 0.980000 -0.012346 0.998478
v 0.987845 -0.012155 0.996640
v 0.993125 -0.012553 0.993125
v 0.991547 -0.008453 0.991547
v 0.998478 -0.012346 0.980000
v 0.994142 -0.005858 0.980000
v 0.998478 -0.020000 0.987654
v 0.996640 -0.012155 0.987845
v 0.993125 -0.006875 0.987447
v 0.980000 -0.001522 0.987654
v 0.980000 -0.005858 0.994142
v 0.987654 -0.001522 0.980000
v 0.987845 -0.003360 0.987845
v 0.987447 -0.006875 0.993125
v -1.000000 -0.020000 -0.980000
v -0.980000 0.000000 -0.980000
v -0.980000 -0.020000 -1.000000
v -0.998478 -0.012346 -0.980000
v -0.994142 -0.005858 -0.980000
v -0.998478 -0.020000 -0.987654
v -0.996640 -0.012155 -0.987845
v -0.993125 -0.006875 -0.987447
v -0.991547 -0.008453 -0.991547
v -0.980000 -0.001522 -0.987654
v -0.980000 -0.005858 -0.994142
v -0.987654 -0.001522 -0.980000
v -0.987845 -0.003360 -0.987845
v -0.987447 -0.006875 -0.993125
v -0.987654 -0.020000 -0.998478
v -0.994142 -0.020000 -0.994142
v -0.980000 -0.012346 -0.998478
v -0.987845 -0.012155 -0.996640
v -0.993125 -0.012553 -0.993125
v 1.000000 -0.020000 -0.980000
v 0.980000 -0.020000 -1.000000
v 0.980000 0.000000 -0.980000
v 0.998478 -0.020000 -0.987654
v 0.994142 -0.020000 -0.994142
v 0.998478 -0.012346 -0.980000
v 0.996640 -0.012155 -0.987845
v 0.993125 -0.012553 -0.993125
v 0.991547 -0.008453 -0.991547
v 0.980000 -0.012346 -0.998478
v 0.980000 -0.005858 -0.994142
v 0.987654 -0.020000 -0.998478
v 0.987845 -0.012155 -0.996640
v 0.987447 -0.006875 -0.993125
v 0.987654 -0.001522 -0.980000
v 0.994142 -0.005858 -0.980000
v 0.980000 -0.001522 -0.987654
v 0.987845 -0.003360 -0.987845
v 0.993125 -0.006875 -0.987447
v -1.000000 -0.070000 0.980000
v -0.980000 -0.090000 0.980000
v -0.980000 -0.070000 1.000000
v -0.998478 -0.077654 0.980000
v -0.994142 -0.084142 0.980000
v -0.998478 -0.070000 0.987654
v -0.996640 -0.077845 0.987845
v -0.993125 -0.083125 0.987447
v -0.991547 -0.081547 0.991547
v -0.980000 -0.088478 0.987654
v -0.980000 -0.084142 0.994142
v -0.987654 -0.088478 0.980000
v -0.987845 -0.086640 0.987845
v -0.987447 -0.083125 0.993125
v -0.987654 -0.070000 0.998478
v -0.994142 -0.070000 0.994142
v -0.980000 -0.077654 0.998478
v -0.987845 -0.077845 0.996640
v -0.993125 -0.077447 0.993125
v 0.980000 -0.070000 1.000000
v 0.980000 -0.090000 0.980000
v 1.000000 -0.070000 0.980000
v 0.980000 -0.077654 0.998478
v 0.980000 -0.084142 0.994142
v 0.987654 -0.070000 0.998478
v 0.987845 -0.077845 0.996640
v 0.987447 -0.083125 0.993125
v 0.991547 -0.081547 0.991547
v 0.987654 -0.088478 0.980000
v 0.994142 -0.084142 0.980000
v 0.980000 -0.088478 0.987654
v 0.987845 -0.086640 0.987845
v 0.993125 -0.083125 0.987447
v 0.998478 -0.070000 0.987654
v 0.994142 -0.070000 0.994142
v 0.998478 -0.077654 0.980000
v 0.996640 -0.077845 0.987845
v 0.993125 -0.077447 0.993125
v -1.000000 -0.070000 -0.980000
v -0.980000 -0.070000 -1.000000
v -0.980000 -0.090000 -0.980000
v -0.998478 -0.070000 -0.987654
v -0.994142 -0.070000 -0.994142
v -0.998478 -0.077654 -0.980000
v -0.996640 -0.077845 -0.987845
v -0.993125 -0.077447 -0.993125
v -0.991547 -0.081547 -0.991547
v -0.980000 -0.077654 -0.998478
v -0.980000 -0.084142 -0.994142
v -0.987654 -0.070000 -0.998478
v -0.987845 -0.077845 -0.996640
v -0.987447 -0.083125 -0.993125
v -0.987654 -0.088478 -0.980000
v -0.994142 -0.084142 -0.980000
v -0.980000 -0.088478 -0.987654
v -0.987845 -0.086640 -0.987845
v -0.993125 -0.083125 -0.987447
v 1.000000 -0.070000 -0.980000
v 0.980000 -0.090000 -0.980000
v 0.980000 -0.070000 -1.000000
v 0.998478 -0.077654 -0.980000
v 0.994142 -0.084142 -0.980000
v 0.998478 -0.070000 -0.987654
v 0.996640 -0.077845 -0.987845
v 0.993125 -0.083125 -0.987447
v 0.991547 -0.081547 -0.991547
v 0.980000 -0.088478 -0.987654
v 0.980000 -0.084142 -0.994142
v 0.987654 -0.088478 -0.980000
v 0.987845 -0.086640 -0.987845
v 0.987447 -0.083125 -0.993125
v 0.987654 -0.070000 -0.998478
v 0.994142 -0.070000 -0.994142
v 0.980000 -0.077654 -0.998478
v 0.987845 -0.077845 -0.996640
v 0.993125 -0.077447 -0.993125
vn -0.9571 0.2049 0.2049
vn -0.8152 0.1818 0.5500
vn -0.8152 0.5500 0.1818
vn -0.7167 0.4931 0.4931
vn -0.2049 0.2049 0.9571
vn -0.1818 0.5500 0.8152
vn -0.5500 0.1818 0.8152
vn -0.4931 0.4931 0.7167
vn -0.2049 0.9571 0.2049
vn -0.5500 0.8152 0.1818
vn -0.1818 0.8152 0.5500
vn -0.4931 0.7167 0.4931
vn 0.2049 0.2049 0.9571
vn 0.5500 0.1818 0.8152
vn 0.1818 0.5499 0.8152
vn 0.4931 0.4931 0.7167
vn 0.9571 0.2049 0.2049
vn 0.8152 0.5500 0.1818
vn 0.8152 0.1818 0.5499
vn 0.7167 0.4931 0.4931
vn 0.2049 0.9571 0.2049
vn 0.1818 0.8152 0.5499
vn 0.5500 0.8152 0.1818
vn 0.4931 0.7167 0.4931
vn -0.9571 0.2049 -0.2049
vn -0.8152 0.5500 -0.1818
vn -0.8152 0.1818 -0.5499
vn -0.7167 0.4931 -0.4931
vn -0.2049 0.9571 -0.2049
vn -0.1818 0.8152 -0.5499
vn -0.5500 0.8152 -0.1818
vn -0.4931 0.7167 -0.4931
vn -0.2049 0.2049 -0.9571
vn -0.5500 0.1818 -0.8152
vn -0.1818 0.5499 -0.8152
vn -0.4931 0.4931 -0.7167
vn 0.9571 0.2049 -0.2049
vn 0.8152 0.1818 -0.5500
vn 0.8152 0.5500 -0.1818
vn 0.7167 0.4931 -0.4931
vn 0.2049 0.2049 -0.9571
vn 0.1818 0.5500 -0.8152
vn 0.5500 0.1818 -0.8152
vn 0.4931 0.4931 -0.7167
vn 0.2049 0.9571 -0.2049
vn 0.5500 0.8152 -0.1818
vn 0.1818 0.8152 -0.5500
vn 0.4931 0.7167 -0.4931
vn -0.9571 -0.2049 0.2049
vn -0.8152 -0.5500 0.1818
vn -0.8152 -0.1818 0.5499
vn -0.7167 -0.4931 0.4931
vn -0.2049 -0.9571 0.2049
vn -0.1818 -0.8152 0.5499
vn -0.5500 -0.8152 0.1818
vn -0.4931 -0.7167 0.4931
vn -0.2049 -0.2049 0.9571
vn -0.5500 -0.1818 0.8152
vn -0.1818 -0.5499 0.8152
vn -0.4931 -0.4931 0.7167
vn 0.2049 -0.2049 0.9571
vn 0.1818 -0.5500 0.8152
vn 0.5499 -0.1818 0.8152
vn 0.4931 -0.4931 0.7167
vn 0.2049 -0.9571 0.2049
vn 0.5500 -0.8152 0.1818
vn 0.1818 -0.8152 0.5500
vn 0.4931 -0.7167 0.4931
vn 0.9571 -0.2049 0.2049
vn 0.8152 -0.1818 0.5500
vn 0.8152 -0.5500 0.1818
vn 0.7167 -0.4931 0.4931
vn -0.9571 -0.2049 -0.2049
vn -0.8152 -0.1818 -0.5500
vn -0.8152 -0.5500 -0.1818
vn -0.7167 -0.4931 -0.4931
vn -0.2049 -0.2049 -0.9571
vn -0.1818 -0.5500 -0.8152
vn -0.5499 -0.1818 -0.8152
vn -0.4931 -0.4931 -0.7167
vn -0.2049 -0.9571 -0.2049
vn -0.5500 -0.8152 -0.1818
vn -0.1818 -0.8152 -0.5500
vn -0.4931 -0.7167 -0.4931
vn 0.9571 -0.2049 -0.2049
vn 0.8152 -0.5500 -0.1818
vn 0.8152 -0.1818 -0.5499
vn 0.7167 -0.4931 -0.4931
vn 0.2049 -0.9571 -0.2049
vn 0.1818 -0.8152 -0.5499
vn 0.5500 -0.8152 -0.1818
vn 0.4931 -0.7167 -0.4931
vn 0.2049 -0.2049 -0.9571
vn 0.5500 -0.1818 -0.8152
vn 0.1818 -0.5499 -0.8152
vn 0.4931 -0.4931 -0.7167
vn -0.9808 0.1951 -0.0000
vn -0.8315 0.5556 -0.0000
vn -0.5556 0.8315 -0.0000
vn -0.1951 0.9808 -0.0000
vn -0.0000 0.1951 0.9808
vn -0.0000 0.5556 0.8315
vn -0.0000 0.8315 0.5556
vn -0.0000 0.9808 0.1951
vn 0.9808 0.1951 -0.0000
vn 0.8315 0.5556 -0.0000
vn 0.5556 0.8315 -0.0000
vn 0.1951 0.9808 -0.0000
vn -0.0000 0.1951 -0.9808
vn -0.0000 0.5556 -0.8315
vn -0.0000 0.8315 -0.5556
vn -0.0000 0.9808 -0.1951
vn -0.1951 -0.9808 -0.0000
vn -0.5556 -0.8315 -0.0000
vn -0.8315 -0.5556 -0.0000
vn -0.9808 -0.1951 -0.0000
vn -0.0000 -0.9808 0.1951
vn -0.0000 -0.8315 0.5556
vn -0.0000 -0.5556 0.8315
vn -0.0000 -0.1951 0.9808
vn 0.1951 -0.9808 -0.0000
vn 0.5556 -0.8315 -0.0000
vn 0.8315 -0.5556 -0.0000
vn 0.9808 -0.1951 -0.0000
vn -0.0000 -0.9808 -0.1951
vn -0.0000 -0.8315 -0.5556
vn -0.0000 -0.5556 -0.8315
vn -0.0000 -0.1951 -0.9808
vn -0.9808 -0.0000 0.1951
vn -0.8315 -0.0000 0.5556
vn -0.5556 -0.0000 0.8315
vn -0.1951 -0.0000 0.9808
vn 0.1951 -0.0000 0.9808
vn 0.5556 -0.0000 0.8315
vn 0.8315 -0.0000 0.5556
vn 0.9808 -0.0000 0.1951
vn -0.1951 -0.0000 -0.9808
vn -0.5556 -0.0000 -0.8315
vn -0.8315 -0.0000 -0.5556
vn -0.9808 -0.0000 -0.1951
vn 0.9808 -0.0000 -0.1951
vn 0.8315 -0.0000 -0.5556
vn 0.5556 -0.0000 -0.8315
vn 0.1951 -0.0000 -0.9808
vn -1.0000 -0.0000 -0.0000
vn -0.0000 1.0000 -0.0000
vn -0.0000 -0.0000 1.0000
vn 1.0000 -0.0000 -0.0000
vn -0.0000 -0.0000 -1.0000
vn -0.0000 -1.0000 -0.0000
vt 0.000000 0.010000
vt 0.000000 0.006173
vt 0.000000 0.006077
vt 0.000000 0.010000
vt 0.000000 0.000000
vt 0.000000 0.006276
vt 0.001409 0.001409
vt 0.010000 0.000000
vt 0.006077 0.000000
vt 0.006173 0.000000
vt 0.006276 0.000000
vt 0.010000 0.010000
vt 0.006173 0.010000
vt 0.006077 0.006077
vt 0.010000 0.006173
vt 0.990000 0.000000
vt 0.993827 0.000000
vt 0.993923 0.000000
vt 0.990000 0.000000
vt 1.000000 0.000000
vt 0.993724 0.000000
vt 0.998591 0.001409
vt 1.000000 0.010000
vt 1.000000 0.010000
vt 1.000000 0.006077
vt 1.000000 0.006173
vt 1.000000 0.010000
vt 1.000000 0.006276
vt 0.990000 0.010000
vt 0.990000 0.006173
vt 0.993923 0.006077
vt 0.993827 0.010000
vt 0.000000 0.990000
vt 0.000000 0.990000
vt 0.000000 0.993923
vt 0.000000 0.993827
vt 0.000000 0.990000
vt 0.000000 0.993724
vt 0.000000 1.000000
vt 0.001409 0.998591
vt 0.010000 0.990000
vt 0.010000 0.993827
vt 0.006077 0.993923
vt 0.006173 0.990000
vt 0.010000 1.000000
vt 0.006276 1.000000
vt 0.010000 1.000000
vt 0.006173 1.000000
vt 0.006077 1.000000
vt 0.010000 1.000000
vt 1.000000 0.990000
vt 1.000000 0.993827
vt 1.000000 0.993923
vt 1.000000 0.990000
vt 1.000000 1.000000
vt 1.000000 0.993724
vt 1.000000 0.990000
vt 0.998591 0.998591
vt 0.990000 1.000000
vt 0.990000 1.000000
vt 0.993923 1.000000
vt 0.993827 1.000000
vt 0.993724 1.000000
vt 0.990000 0.990000
vt 0.993827 0.990000
vt 0.993923 0.993923
vt 0.990000 0.993827
vt 0.000000 0.006173
vt 0.001409 0.001409
vt 0.010000 0.006173
vt 0.006077 0.006077
vt 0.010000 0.000000
vt 0.010000 0.000000
vt 0.006077 0.000000
vt 0.993923 0.000000
vt 0.993827 0.000000
vt 1.000000 0.000000
vt 0.998591 0.001409
vt 0.993827 0.010000
vt 0.990000 0.006173
vt 1.000000 0.006276
vt 1.000000 0.006173
vt 1.000000 0.006077
vt 0.000000 0.993827
vt 0.000000 0.990000
vt 0.000000 1.000000
vt 0.000000 0.993724
vt 0.001409 0.998591
vt 0.010000 1.000000
vt 0.006077 1.000000
vt 0.006173 1.000000
vt 0.006276 1.000000
vt 0.006173 0.990000
vt 0.010000 0.993827
vt 1.000000 0.990000
vt 1.000000 0.993923
vt 1.000000 0.993827
vt 1.000000 0.993724
vt 0.998591 0.998591
vt 0.990000 0.990000
vt 0.990000 0.993827
vt 0.993827 0.990000
vt 0.993724 1.000000
vt 0.993827 1.000000
vt 0.993923 1.000000
s 0
f 1/1/1 4/2/1 7/3/1 6/4/1
f 4/2/2 5/5/2 8/5/2 7/3/2
f 6/4/3 7/3/3 19/6/3 16/4/3
f 7/3/4 8/5/4 9/7/4 19/6/4
f 2/8/5 10/8/5 13/9/5 12/10/5
f 10/8/6 11/8/6 14/11/6 13/9/6
f 12/10/7 13/9/7 8/5/7 5/5/7
f 13/9/8 14/11/8 9/7/8 8/5/8
f 3/12/9 15/13/9 18/14/9 17/15/9
f 15/13/10 16/4/10 19/6/10 18/14/10
f 17/15/11 18/14/11 14/11/11 11/8/11
f 18/14/12 19/6/12 9/7/12 14/11/12
f 20/16/13 23/17/13 26/18/13 25/19/13
f 23/17/14 24/20/14 27/20/14 26/18/14
f 25/19/15 26/18/15 38/21/15 35/19/15
f 26/18/16 27/20/16 28/22/16 38/21/16
f 21/23/17 29/24/17 32/25/17 31/26/17
f 29/24/18 30/27/18 33/28/18 32/25/18
f 31/26/19 32/25/19 27/20/19 24/20/19
f 32/25/20 33/28/20 28/22/20 27/20/20
f 22/29/21 34/30/21 37/31/21 36/32/21
f 34/30/22 35/19/22 38/21/22 37/31/22
f 36/32/23 37/31/23 33/28/23 30/27/23
f 37/31/24 38/21/24 28/22/24 33/28/24
f 39/33/25 42/34/25 45/35/25 44/36/25
f 42/34/26 43/37/26 46/38/26 45/35/26
f 44/36/27 45/35/27 57/39/27 54/39/27
f 45/35/28 46/38/28 47/40/28 57/39/28
f 40/41/29 48/42/29 51/43/29 50/44/29
f 48/42/30 49/45/30 52/46/30 51/43/30
f 50/44/31 51/43/31 46/38/31 43/37/31
f 51/43/32 52/46/32 47/40/32 46/38/32
f 41/47/33 53/48/33 56/49/33 55/50/33
f 53/48/34 54/39/34 57/39/34 56/49/34
f 55/50/35 56/49/35 52/46/35 49/45/35
f 56/49/36 57/39/36 47/40/36 52/46/36
f 58/51/37 61/52/37 64/53/37 63/54/37
f 61/52/38 62/55/38 65/55/38 64/53/38
f 63/54/39 64/53/39 76/56/39 73/57/39
f 64/53/40 65/55/40 66/58/40 76/56/40
f 59/59/41 67/60/41 70/61/41 69/62/41
f 67/60/42 68/60/42 71/63/42 70/61/42
f 69/62/43 70/61/43 65/55/43 62/55/43
f 70/61/44 71/63/44 66/58/44 65/55/44
f 60/64/45 72/65/45 75/66/45 74/67/45
f 72/65/46 73/57/46 76/56/46 75/66/46
f 74/67/47 75/66/47 71/63/47 68/60/47
f 75/66/48 76/56/48 66/58/48 71/63/48
f 77/1/49 80/4/49 83/3/49 82/68/49
f 80/4/50 81/4/50 84/6/50 83/3/50
f 82/68/51 83/3/51 95/5/51 92/5/51
f 83/3/52 84/6/52 85/69/52 95/5/52
f 78/12/53 86/70/53 89/71/53 88/13/53
f 86/70/54 87/72/54 90/11/54 89/71/54
f 88/13/55 89/71/55 84/6/55 81/4/55
f 89/71/56 90/11/56 85/69/56 84/6/56
f 79/73/57 91/10/57 94/74/57 93/8/57
f 91/10/58 92/5/58 95/5/58 94/74/58
f 93/8/59 94/74/59 90/11/59 87/72/59
f 94/74/60 95/5/60 85/69/60 90/11/60
f 96/16/61 99/19/61 102/75/61 101/76/61
f 99/19/62 100/19/62 103/21/62 102/75/62
f 101/76/63 102/75/63 114/20/63 111/77/63
f 102/75/64 103/21/64 104/78/64 114/20/64
f 97/29/65 105/79/65 108/31/65 107/80/65
f 105/79/66 106/27/66 109/81/66 108/31/66
f 107/80/67 108/31/67 103/21/67 100/19/67
f 108/31/68 109/81/68 104/78/68 103/21/68
f 98/23/69 110/82/69 113/83/69 112/27/69
f 110/82/70 111/77/70 114/20/70 113/83/70
f 112/27/71 113/83/71 109/81/71 106/27/71
f 113/83/72 114/20/72 104/78/72 109/81/72
f 115/33/73 118/84/73 121/35/73 120/85/73
f 118/84/74 119/86/74 122/39/74 121/35/74
f 120/85/75 121/35/75 133/87/75 130/85/75
f 121/35/76 122/39/76 123/88/76 133/87/76
f 116/89/77 124/45/77 127/90/77 126/91/77
f 124/45/78 125/45/78 128/92/78 127/90/78
f 126/91/79 127/90/79 122/39/79 119/86/79
f 127/90/80 128/92/80 123/88/80 122/39/80
f 117/41/81 129/93/81 132/43/81 131/94/81
f 129/93/82 130/85/82 133/87/82 132/43/82
f 131/94/83 132/43/83 128/92/83 125/45/83
f 132/43/84 133/87/84 123/88/84 128/92/84
f 134/51/85 137/95/85 140/96/85 139/97/85
f 137/95/86 138/51/86 141/98/86 140/96/86
f 139/97/87 140/96/87 152/55/87 149/55/87
f 140/96/88 141/98/88 142/99/88 152/55/88
f 135/100/89 143/101/89 146/66/89 145/102/89
f 143/101/90 144/60/90 147/103/90 146/66/90
f 145/102/91 146/66/91 141/98/91 138/51/91
f 146/66/92 147/103/92 142/99/92 141/98/92
f 136/59/93 148/104/93 151/105/93 150/60/93
f 148/104/94 149/55/94 152/55/94 151/105/94
f 150/60/95 151/105/95 147/103/95 144/60/95
f 151/105/96 152/55/96 142/99/96 147/103/96
f 39/33/97 1/1/97 6/4/97 42/34/97
f 42/34/98 6/4/98 16/4/98 43/37/98
f 43/37/99 16/4/99 15/13/99 50/44/99
f 50/44/100 15/13/100 3/12/100 40/41/100
f 2/8/101 20/16/101 25/19/101 10/8/101
f 10/8/102 25/19/102 35/19/102 11/8/102
f 11/8/103 35/19/103 34/30/103 17/15/103
f 17/15/104 34/30/104 22/29/104 3/12/104
f 21/23/105 58/51/105 63/54/105 29/24/105
f 29/24/106 63/54/106 73/57/106 30/27/106
f 30/27/107 73/57/107 72/65/107 36/32/107
f 36/32/108 72/65/108 60/64/108 22/29/108
f 59/59/109 41/47/109 55/50/109 67/60/109
f 67/60/110 55/50/110 49/45/110 68/60/110
f 68/60/111 49/45/111 48/42/111 74/67/111
f 74/67/112 48/42/112 40/41/112 60/64/112
f 117/41/113 78/12/113 88/13/113 129/93/113
f 129/93/114 88/13/114 81/4/114 130/85/114
f 130/85/115 81/4/115 80/4/115 120/85/115
f 120/85/116 80/4/116 77/1/116 115/33/116
f 78/12/117 97/29/117 107/80/117 86/70/117
f 86/70/118 107/80/118 100/19/118 87/72/118
f 87/72/119 100/19/119 99/19/119 93/8/119
f 93/8/120 99/19/120 96/16/120 79/73/120
f 97/29/121 135/100/121 145/102/121 105/79/121
f 105/79/122 145/102/122 138/51/122 106/27/122
f 106/27/123 138/51/123 137/95/123 112/27/123
f 112/27/124 137/95/124 134/51/124 98/23/124
f 135/100/125 117/41/125 131/94/125 143/101/125
f 143/101/126 131/94/126 125/45/126 144/60/126
f 144/60/127 125/45/127 124/45/127 150/60/127
f 150/60/128 124/45/128 116/89/128 136/59/128
f 1/1/129 77/1/129 82/68/129 4/2/129
f 4/2/130 82/68/130 92/5/130 5/5/130
f 5/5/131 92/5/131 91/10/131 12/10/131
f 12/10/132 91/10/132 79/73/132 2/8/132
f 20/16/133 96/16/133 101/76/133 23/17/133
f 23/17/134 101/76/134 111/77/134 24/20/134
f 24/20/135 111/77/135 110/82/135 31/26/135
f 31/26/136 110/82/136 98/23/136 21/23/136
f 41/47/137 116/89/137 126/91/137 53/48/137
f 53/48/138 126/91/138 119/86/138 54/39/138
f 54/39/139 119/86/139 118/84/139 44/36/139
f 44/36/140 118/84/140 115/33/140 39/33/140
f 58/51/141 134/51/141 139/97/141 61/52/141
f 61/52/142 139/97/142 149/55/142 62/55/142
f 62/55/143 149/55/143 148/104/143 69/62/143
f 69/62/144 148/104/144 136/59/144 59/59/144
f 1/1/145 39/33/145 115/33/145 77/1/145
f 3/12/146 22/29/146 60/64/146 40/41/146
f 20/16/147 2/8/147 79/73/147 96/16/147
f 58/51/148 21/23/148 98/23/148 134/51/148
f 41/47/149 59/59/149 136/59/149 116/89/149
f 78/12/150 117/41/150 135/100/150 97/29/150
